<svg id="Layer_1" data-name="Layer 1" xmlns="http://www.w3.org/2000/svg" viewBox="0 0 512 512"><defs><style>.cls-1{fill:#ea8d28;}.cls-2{fill:#ffa840;}.cls-3{fill:#c15d25;fill-rule:evenodd;}</style></defs><title>medal-2-flat</title><path class="cls-1" d="M500.8,283h0a38.23,38.23,0,0,0,0-54.07h0a38.23,38.23,0,0,1-8.29-41.67h0a38.23,38.23,0,0,0-20.69-50h0A38.23,38.23,0,0,1,448.22,102h0A38.23,38.23,0,0,0,410,63.78h0a38.23,38.23,0,0,1-35.32-23.6h0a38.23,38.23,0,0,0-50-20.69h0A38.23,38.23,0,0,1,283,11.2h0a38.23,38.23,0,0,0-54.07,0h0a38.23,38.23,0,0,1-41.67,8.29h0a38.23,38.23,0,0,0-50,20.69h0A38.23,38.23,0,0,1,102,63.78h0A38.23,38.23,0,0,0,63.78,102h0a38.23,38.23,0,0,1-23.6,35.32h0a38.23,38.23,0,0,0-20.69,50h0A38.23,38.23,0,0,1,11.2,229h0a38.23,38.23,0,0,0,0,54.07h0a38.23,38.23,0,0,1,8.29,41.67h0a38.23,38.23,0,0,0,20.69,50h0A38.23,38.23,0,0,1,63.78,410h0A38.23,38.23,0,0,0,102,448.22h0a38.23,38.23,0,0,1,35.32,23.6h0a38.23,38.23,0,0,0,50,20.69h0A38.23,38.23,0,0,1,229,500.8h0a38.23,38.23,0,0,0,54.07,0h0a38.23,38.23,0,0,1,41.67-8.29h0a38.23,38.23,0,0,0,50-20.69h0A38.23,38.23,0,0,1,410,448.22h0A38.23,38.23,0,0,0,448.22,410h0a38.23,38.23,0,0,1,23.6-35.32h0a38.23,38.23,0,0,0,20.69-50h0A38.23,38.23,0,0,1,500.8,283Z"/><circle class="cls-2" cx="256" cy="256" r="192"/><path class="cls-3" d="M270.88,188.82l10.87,22.91a16.66,16.66,0,0,0,12.5,9.44l24.32,3.67c13.61,2.06,19,19.45,9.2,29.44l-17.6,17.83a17.69,17.69,0,0,0-4.77,15.28l4.15,25.18c2.33,14.1-11.91,24.85-24.08,18.19l-21.75-11.89a16,16,0,0,0-15.45,0l-21.75,11.89c-12.18,6.66-26.41-4.09-24.08-18.19l4.15-25.18a17.69,17.69,0,0,0-4.77-15.28l-17.59-17.83c-9.85-10-4.42-27.38,9.2-29.44l24.32-3.67a16.66,16.66,0,0,0,12.5-9.44l10.87-22.91A16.32,16.32,0,0,1,270.88,188.82Z"/></svg>